<svg xmlns="http://www.w3.org/2000/svg" xmlns:xlink="http://www.w3.org/1999/xlink" id="Layer_1" x="0" y="0" version="1.1" viewBox="0 0 600 600" style="enable-background:new 0 0 600 600" xml:space="preserve"><style type="text/css">.st0{fill:#7988a2}.st1{fill:#435d7b}.st2{fill:#60718c}.st3{fill:#a8b3c1}</style><switch><g><g><path d="M411.9,87.9c2.6,1.3,5.1,2.7,7.7,4.1C417.1,90.6,414.5,89.2,411.9,87.9z" class="st0"/><path d="M173.3,503.5c-2.7-1.7-5.5-3.4-8.1-5.3C167.8,500.1,170.6,501.8,173.3,503.5z" class="st0"/><path d="M191.2,513.9c-2.7-1.4-5.3-2.9-8-4.4C185.9,511,188.5,512.5,191.2,513.9z" class="st0"/><path d="M392.6,78.9c2.8,1.1,5.5,2.4,8.2,3.7C398.1,81.3,395.4,80,392.6,78.9z" class="st0"/><path d="M234.7,531.3c-1.8-0.5-3.7-1-5.4-1.5C231.1,530.4,232.9,530.8,234.7,531.3z" class="st0"/><path d="M279.6,539.9c-2.3-0.2-4.5-0.5-6.8-0.8C275,539.3,277.3,539.7,279.6,539.9z" class="st0"/><path d="M257.6,536.8c-2.4-0.5-4.9-0.9-7.3-1.4C252.7,535.8,255.1,536.3,257.6,536.8z" class="st0"/><path d="M431.6,99.3c1.8,1.2,3.7,2.3,5.5,3.5C435.3,101.6,433.5,100.5,431.6,99.3z" class="st0"/><path d="M210,522.8c-2.3-0.9-4.5-2-6.7-3C205.6,520.7,207.8,521.8,210,522.8z" class="st0"/><path d="M530.9,229.3c0.3,0.8,0.4,1.6,0.7,2.4C531.3,230.9,531.1,230.1,530.9,229.3z" class="st0"/><path d="M453.2,114.9c1.6,1.3,3.1,2.7,4.7,4C456.3,117.6,454.8,116.2,453.2,114.9z" class="st0"/><path d="M539.9,272.3c0.3,2.2,0.6,4.3,0.8,6.5C540.5,276.6,540.2,274.5,539.9,272.3z" class="st0"/><path d="M436,500c19.2-12.9,36.3-28.6,51-46.3C472.4,471.5,455.2,487.1,436,500z" class="st0"/><path d="M441.6,423c-4.6,1.5-9.1,1.6-13.1,0c-15.6-6.2-18.8-35.2-7.1-64.7c11.8-29.5,33.8-48.4,49.6-42.1 c7.4,3,11.9,11.1,13.5,21.8c3.7-13.7,6.4-27.7,7.7-42.3c-0.1,0-0.2,0-0.2,0c-0.3,0-0.7,0-1-0.1c-3.3-0.6-5.5-3.6-4.9-6.9 c1.6-9.5,1.7-19.1,0.2-28.4c-0.5-3.3,1.7-6.4,5-6.9c0.3,0,0.7,0.1,1,0.1c-0.4-4.7-0.9-9.3-1.6-13.9c-0.2,0-0.3,0.1-0.5,0.1 c-2.7,0-5.2-1.9-5.8-4.7c-9.7-42.7-38-81.6-75.7-104.1c-2.8-1.7-3.8-5.4-2.1-8.2s5.4-3.8,8.2-2.1c23.5,14,43.5,34.1,58.3,57.3 c-17.7-40.2-46-74.6-81.4-99.6C363.8,67.3,333.6,61,301.8,61c-132.6,0-240,107.5-240,240c0,81.4,40.6,153.3,102.6,196.6 c27.4,11,57.4,17,88.8,17C329.7,514.6,397.7,478.7,441.6,423z M434.1,230.7c3.5,0,6.2,2.9,6.2,6.2c0,3.5-2.8,6.2-6.2,6.2 s-6.2-2.8-6.2-6.2C427.8,233.6,430.6,230.7,434.1,230.7z M309,444.8c-4,0-7.2-3.2-7.2-7.3c0-4,3.2-7.2,7.2-7.2 c4.1,0,7.3,3.2,7.3,7.2C316.3,441.5,313.1,444.8,309,444.8z M325.2,467c-2.4,0-4.4-1.9-4.4-4.3c0-2.5,2-4.4,4.4-4.4 s4.3,1.9,4.3,4.4C329.5,465,327.6,467,325.2,467z M377.5,144.8c13.7,0,24.8,11,24.8,24.7c0,13.7-11.2,24.7-24.8,24.7 c-13.7,0-24.7-11-24.7-24.7C352.8,155.8,363.9,144.8,377.5,144.8z M350.7,440.8c0,5.8-4.7,10.6-10.6,10.6 c-5.8,0-10.6-4.8-10.6-10.6c0-5.9,4.8-10.6,10.6-10.6C346,430.2,350.7,434.9,350.7,440.8z M310.8,99.8c8,0,14.5,6.5,14.5,14.4 c0,8-6.5,14.5-14.5,14.5c-8,0-14.5-6.5-14.5-14.5C296.3,106.2,302.8,99.8,310.8,99.8z M301.8,144.8c4.9,0,9,4,9,9 c0,4.9-4.1,9-9,9c-4.9,0-9-4.1-9-9C292.8,148.7,296.9,144.8,301.8,144.8z M281.5,119.7c3.2,0,5.8,2.6,5.8,5.8 c0,3.2-2.5,5.8-5.8,5.8c-3.1,0-5.8-2.5-5.8-5.8C275.8,122.3,278.4,119.7,281.5,119.7z M309.6,267.3c18.6,0,33.7,15.1,33.7,33.7 c0,18.7-15.1,33.8-33.7,33.8c-18.7,0-33.8-15.1-33.8-33.8C275.8,282.4,290.9,267.3,309.6,267.3z M112.7,384 c-0.9,0.5-1.8,0.7-2.7,0.7c-2.2,0-4.3-1.2-5.3-3.3c-23.3-45.5-26.7-101.2-9.1-149.2c1.2-3.1,4.6-4.7,7.7-3.6 c3.1,1.1,4.7,4.6,3.6,7.7c-16.5,44.9-13.4,97,8.5,139.5C116.8,378.9,115.6,382.5,112.7,384z M158.9,444.1c-1.1,1.9-3.1,3-5.2,3 c-1,0-2.1-0.3-3-0.8c-12.7-7.5-23-18.9-29.1-32.4c-1.4-3,0-6.6,3-7.9c3-1.4,6.6,0,7.9,3c5,11.1,13.6,20.7,24.2,26.9 C159.6,437.5,160.6,441.2,158.9,444.1z M167.8,311.9c-3,0-5.4-2.4-5.4-5.4s2.4-5.5,5.4-5.5s5.4,2.5,5.4,5.5 S170.8,311.9,167.8,311.9z M202.3,426.2c-12.8,0-23.3-10.3-23.3-23.2s10.4-23.3,23.3-23.3s23.3,10.4,23.3,23.3 S215.2,426.2,202.3,426.2z M184.9,321.2c3.1,0,5.8,2.6,5.8,5.9c0,3.2-2.6,5.8-5.8,5.8c-3.2,0-5.9-2.5-5.9-5.8 C179.1,323.8,181.7,321.2,184.9,321.2z M179.1,295.8c0-6.4,5.2-11.6,11.6-11.6c6.4,0,11.6,5.3,11.6,11.6 c0,6.5-5.3,11.6-11.6,11.6C184.2,307.5,179.1,302.3,179.1,295.8z M228.7,221.4c-11.2,19.4-32,28.3-46.7,19.8 c-14.5-8.4-17.3-30.8-6.1-50.3c11.2-19.3,32-28.2,46.7-19.8C237.1,179.6,239.9,202.1,228.7,221.4z" class="st0"/><path d="M536.3,250c0.5,2.2,0.9,4.3,1.3,6.5C537.1,254.4,536.7,252.2,536.3,250z" class="st0"/><path d="M484.4,145.4c1.2,1.4,2.4,2.7,3.5,4.1C486.7,148.1,485.5,146.8,484.4,145.4z" class="st0"/><path d="M468.9,128.9c1.7,1.6,3.3,3.3,5,5C472.3,132.2,470.6,130.6,468.9,128.9z" class="st0"/><path d="M500.3,166.1c0.8,1.1,1.4,2.3,2.2,3.4C501.8,168.4,501.1,167.3,500.3,166.1z" class="st0"/><path d="M521.3,204.1c0.8,1.7,1.6,3.4,2.3,5.2C522.8,207.5,522,205.8,521.3,204.1z" class="st0"/><path d="M511.4,184.1c1,1.9,2,3.8,3,5.7C513.4,187.9,512.4,186,511.4,184.1z" class="st0"/><path d="M540.7,278.8c-0.2-2.2-0.5-4.3-0.8-6.5c-0.6-5.3-1.4-10.6-2.4-15.7c-0.4-2.2-0.8-4.4-1.3-6.5 c-1.3-6.2-2.9-12.3-4.7-18.3c-0.2-0.8-0.4-1.6-0.7-2.4c-2.1-6.8-4.6-13.5-7.3-20c-0.7-1.8-1.5-3.5-2.3-5.2 c-2.1-4.8-4.4-9.6-6.9-14.3c-1-1.9-2-3.8-3-5.7c-2.8-5-5.7-9.8-8.9-14.6c-0.7-1.1-1.4-2.3-2.2-3.4c-3.9-5.7-8.1-11.3-12.4-16.7 c-1.1-1.4-2.4-2.7-3.5-4.1c-3.4-3.9-6.8-7.8-10.4-11.5c-1.6-1.7-3.3-3.3-5-5c-3.6-3.5-7.3-6.8-11.1-10.1c-1.6-1.3-3.1-2.7-4.7-4 c-5.2-4.2-10.5-8.2-16.1-12c-1.8-1.2-3.7-2.3-5.5-3.5c-3.9-2.5-7.9-5-12-7.3c-2.5-1.4-5.1-2.8-7.7-4.1c-3.6-1.9-7.3-3.6-11.1-5.3 c-2.7-1.2-5.4-2.5-8.2-3.7c-0.5-0.2-0.9-0.4-1.4-0.6c0.1,0.1,0.2,0.1,0.3,0.2c35.4,25,63.8,59.4,81.4,99.6 c10.6,16.8,18.7,35.2,23,54.4c0.7,3.2-1.3,6.4-4.5,7.2c-0.3,0.1-0.5,0.1-0.8,0.1c0.7,4.6,1.2,9.2,1.6,13.9c2.9,0.1,5.4,2,5.9,4.9 c1.7,10.7,1.6,21.5-0.3,32.3c-0.5,2.8-2.9,4.8-5.7,5c-1.3,14.5-3.9,28.6-7.7,42.3c-1.6-10.7-6.1-18.9-13.5-21.8 c-15.7-6.2-37.8,12.6-49.6,42.1c-11.8,29.5-8.5,58.4,7.1,64.7c4,1.6,8.5,1.5,13.1,0c-43.9,55.7-111.9,91.6-188.4,91.6 c-31.3,0-61.4-6-88.8-17c-0.1,0-0.2-0.1-0.2-0.1c0.3,0.2,0.7,0.4,1,0.7c2.6,1.8,5.4,3.5,8.1,5.3c3.3,2.1,6.6,4.1,9.9,6 c2.6,1.5,5.3,3,8,4.4c4,2.1,8,4,12.1,5.8c2.2,1,4.4,2.1,6.7,3c6.3,2.6,12.7,5,19.3,7.1c1.8,0.6,3.6,1,5.4,1.5 c5.1,1.5,10.3,2.8,15.5,4c2.4,0.5,4.9,1,7.3,1.4c5,0.9,10.1,1.7,15.2,2.3c2.3,0.3,4.5,0.6,6.8,0.8c7.3,0.7,14.7,1.1,22.2,1.1 c49.7,0,95.9-15.1,134.2-41c19.2-12.9,36.3-28.6,51-46.3c34.2-41.5,54.8-94.7,54.8-152.7C541.8,293.5,541.4,286.1,540.7,278.8z" class="st1"/><path d="M202.3,379.7c-12.8,0-23.3,10.4-23.3,23.3s10.4,23.2,23.3,23.2s23.3-10.3,23.3-23.2S215.2,379.7,202.3,379.7 z" class="st1"/><path d="M222.6,171.2c-14.6-8.4-35.5,0.5-46.7,19.8c-11.2,19.4-8.4,41.9,6.1,50.3c14.6,8.5,35.5-0.4,46.7-19.8 C239.9,202.1,237.1,179.6,222.6,171.2z" class="st1"/><path d="M309.6,334.8c18.6,0,33.7-15.1,33.7-33.8c0-18.6-15.1-33.7-33.7-33.7c-18.7,0-33.8,15.1-33.8,33.7 C275.8,319.7,290.9,334.8,309.6,334.8z" class="st1"/><path d="M377.5,194.2c13.7,0,24.8-11,24.8-24.7c0-13.7-11.2-24.7-24.8-24.7c-13.7,0-24.7,11-24.7,24.7 C352.8,183.2,363.9,194.2,377.5,194.2z" class="st1"/><path d="M434.1,243.2c3.5,0,6.2-2.8,6.2-6.2c0-3.4-2.8-6.2-6.2-6.2s-6.2,2.9-6.2,6.2 C427.8,240.4,430.6,243.2,434.1,243.2z" class="st2"/><path d="M329.5,440.8c0,5.8,4.8,10.6,10.6,10.6c5.9,0,10.6-4.8,10.6-10.6c0-5.9-4.7-10.6-10.6-10.6 C334.3,430.2,329.5,434.9,329.5,440.8z" class="st2"/><path d="M325.2,458.2c-2.4,0-4.4,1.9-4.4,4.4c0,2.4,2,4.3,4.4,4.3s4.3-1.9,4.3-4.3 C329.5,460.1,327.6,458.2,325.2,458.2z" class="st2"/><path d="M310.8,128.7c8,0,14.5-6.5,14.5-14.5c0-7.9-6.5-14.4-14.5-14.4c-8,0-14.5,6.5-14.5,14.4 C296.3,122.2,302.8,128.7,310.8,128.7z" class="st2"/><path d="M309,430.2c-4,0-7.2,3.2-7.2,7.2c0,4.1,3.2,7.3,7.2,7.3c4.1,0,7.3-3.2,7.3-7.3 C316.3,433.5,313.1,430.2,309,430.2z" class="st2"/><path d="M301.8,162.8c4.9,0,9-4.1,9-9c0-5-4.1-9-9-9c-4.9,0-9,4-9,9C292.8,158.7,296.9,162.8,301.8,162.8z" class="st2"/><path d="M281.5,131.2c3.2,0,5.8-2.5,5.8-5.8c0-3.1-2.5-5.8-5.8-5.8c-3.1,0-5.8,2.6-5.8,5.8 C275.8,128.7,278.4,131.2,281.5,131.2z" class="st2"/><path d="M190.7,307.5c6.4,0,11.6-5.2,11.6-11.6c0-6.4-5.3-11.6-11.6-11.6c-6.5,0-11.6,5.3-11.6,11.6 C179.1,302.3,184.2,307.5,190.7,307.5z" class="st2"/><path d="M184.9,332.8c3.1,0,5.8-2.5,5.8-5.8c0-3.2-2.6-5.9-5.8-5.9c-3.2,0-5.9,2.6-5.9,5.9 C179.1,330.3,181.7,332.8,184.9,332.8z" class="st2"/><path d="M167.8,301c-3,0-5.4,2.5-5.4,5.5s2.4,5.4,5.4,5.4s5.4-2.4,5.4-5.4S170.8,301,167.8,301z" class="st2"/><path d="M106.8,236.4c1.1-3.1-0.4-6.6-3.6-7.7c-3.1-1.2-6.6,0.4-7.7,3.6c-17.7,48-14.3,103.7,9.1,149.2 c1.1,2.1,3.2,3.3,5.3,3.3c0.9,0,1.9-0.2,2.7-0.7c2.9-1.5,4.1-5.1,2.6-8.1C93.4,333.4,90.3,281.2,106.8,236.4z" class="st3"/><path d="M156.8,435.9c-10.6-6.2-19.2-15.8-24.2-26.9c-1.4-3-4.9-4.4-7.9-3c-3,1.4-4.4,4.9-3,7.9 c6,13.4,16.4,24.9,29.1,32.4c1,0.6,2,0.8,3,0.8c2.1,0,4.1-1.1,5.2-3C160.6,441.2,159.6,437.5,156.8,435.9z" class="st3"/><path d="M414.7,120.8c-2.8-1.7-6.5-0.8-8.2,2.1s-0.8,6.5,2.1,8.2c37.7,22.4,66,61.3,75.7,104.1 c0.6,2.8,3.1,4.7,5.8,4.7c0.2,0,0.3,0,0.5-0.1c0.3,0,0.5,0,0.8-0.1c3.2-0.7,5.3-3.9,4.5-7.2c-4.4-19.2-12.4-37.6-23-54.4 C458.2,154.8,438.2,134.8,414.7,120.8z" class="st3"/><path d="M486.2,260.4c1.5,9.4,1.4,18.9-0.2,28.4c-0.6,3.3,1.7,6.4,4.9,6.9c0.3,0.1,0.7,0.1,1,0.1c0.1,0,0.2,0,0.2,0 c2.8-0.1,5.2-2.1,5.7-5c1.8-10.8,1.9-21.6,0.3-32.3c-0.5-2.9-3-4.9-5.9-4.9c-0.3,0-0.6-0.1-1-0.1 C487.9,254.1,485.7,257.1,486.2,260.4z" class="st3"/></g></g></switch></svg>