<svg height="73" viewBox="0 0 73 73" width="73" xmlns="http://www.w3.org/2000/svg" xmlns:xlink="http://www.w3.org/1999/xlink"><mask id="a" fill="#fff"/><mask id="b" fill="#fff"><use fill="#fff" fill-rule="evenodd" xlink:href="#d"/></mask><mask id="c" fill="#fff"><path d="m21.5 0c11.8836364 0 21.5 9.61636364 21.5 21.5 0 11.8836364-9.6163636 21.5-21.5 21.5-11.88363636 0-21.5-9.6163636-21.5-21.5 0-11.88363636 9.61636364-21.5 21.5-21.5z" fill="#fff" fill-rule="evenodd"/></mask><g fill="none" fill-rule="evenodd"><rect fill="#fff" fill-rule="nonzero" height="71" rx="14" stroke="#5c5c5e" stroke-width="2" width="71" x="1" y="1"/><g mask="url(#a)" transform="translate(15 15)"><g transform="translate(.503906 .503906)"><path d="m20.9960938 0c11.6051136 0 20.9960937 9.39098011 20.9960937 20.9960938 0 11.6051136-9.3909801 20.9960937-20.9960937 20.9960937-11.60511369 0-20.9960938-9.3909801-20.9960938-20.9960937 0-11.60511369 9.39098011-20.9960938 20.9960938-20.9960938z" fill="#000" fill-rule="nonzero"/><path id="d" d="m20.9960938 0c11.6051136 0 20.9960937 9.39098011 20.9960937 20.9960938 0 11.6051136-9.3909801 20.9960937-20.9960937 20.9960937-11.60511369 0-20.9960938-9.3909801-20.9960938-20.9960937 0-11.60511369 9.39098011-20.9960938 20.9960938-20.9960938z" fill="#fff"/></g></g><g fill-rule="nonzero"><path d="m21.5 1.24061129c11.1979167 0 20.2593887 9.06147201 20.2593887 20.25938871s-9.061472 20.2593887-20.2593887 20.2593887-20.25938871-9.061472-20.25938871-20.2593887 9.06147201-20.25938871 20.25938871-20.25938871z" fill="#5c5c5e" mask="url(#b)" transform="translate(15 15)"/><path d="m32.2558937 30.414131c-.7367051 2.2837857-1.8417627 3.9782073-3.3888433 5.2306058-1.5470805 1.2523987-3.6098547 1.9154331-6.1883223 2.1364447l-.5156936-3.3888432c1.6944217-.2210116 2.9468202-.5893641 3.7571957-1.1787281.294682-.2210115.8840461-.8840461.8840461-.8840461l-6.1146518-19.5963541h5.0832647l3.5361843 14.6604303 3.7571957-14.6604303h4.9359238zm-17.7545916-18.3439556c1.1787281 0 2.2837856.147341 3.1678316.5156936.9577167.3683525 1.8417627.884046 2.7258088 1.6207511l-2.0627742 2.7994791c-.589364-.442023-1.1787281-.736705-1.6944216-.9577165s-1.1787281-.294682-1.7680921-.294682c-2.5047971 0-3.7571957 1.915433-3.7571957 5.8199697 0 1.9891038.294682 3.3888433.9577165 4.1992188.6630346.884046 1.5470806 1.2523987 2.7994792 1.2523987.589364 0 1.1787281-.0736706 1.6944216-.2946821.5156936-.2210116 1.1050575-.5156936 1.8417626-.9577166l2.0627741 2.9468202c-1.6944215 1.3997395-3.6098547 2.0627742-5.8199698 2.0627742-1.7680921 0-3.2415022-.3683526-4.5675713-1.1050575-1.25239856-.7367051-2.28378562-1.8417628-2.94682016-3.2415023-.66303453-1.3997395-1.03138706-3.0204906-1.03138706-4.9359238 0-1.8417626.36835253-3.5361843 1.03138706-4.9359238.66303454-1.4734101 1.6944216-2.5784676 2.94682016-3.3888432 1.2523986-.6630345 2.7258087-1.1050576 4.4202303-1.1050576z" fill="#fff" mask="url(#c)" transform="translate(15 15)"/></g></g></svg>