<svg xmlns="http://www.w3.org/2000/svg" xmlns:xlink="http://www.w3.org/1999/xlink" x="0" y="0" version="1.1" viewBox="0 0 32 32" style="enable-background:new 0 0 32 32" xml:space="preserve"><style type="text/css"/><g id="Layer_13"><path id="id_106" d="M27.096,7.771l-5.993-5.994C20.673,1.347,20.078,1.1,19.469,1.1h-9.077c-1.274,0-2.31,1.036-2.31,2.31v1.54H6.54 c-1.274,0-2.31,1.036-2.31,2.31v21.33c0,1.274,1.036,2.31,2.31,2.31h15.07c1.274,0,2.31-1.036,2.31-2.31v-1.547h1.543 c1.274,0,2.31-1.036,2.31-2.31V9.404C27.773,8.787,27.533,8.207,27.096,7.771z M24.701,7.92h-3.238c-0.281,0-0.51-0.229-0.51-0.51 V4.172L24.701,7.92z M22.12,28.59c0,0.281-0.229,0.51-0.51,0.51H6.54c-0.281,0-0.51-0.229-0.51-0.51V7.26 c0-0.281,0.229-0.51,0.51-0.51h1.542v17.982c0,1.274,1.036,2.31,2.31,2.31H22.12V28.59z M25.463,25.243H10.392 c-0.281,0-0.51-0.229-0.51-0.51V3.41c0-0.281,0.229-0.51,0.51-0.51h8.761v4.51c0,1.274,1.036,2.31,2.31,2.31h4.51v15.012 C25.973,25.014,25.744,25.243,25.463,25.243z" style="fill:#fff"/><path id="id_107" d="M23.424,11.878H12.431c-0.497,0-0.9,0.403-0.9,0.9s0.403,0.9,0.9,0.9h10.994c0.497,0,0.9-0.403,0.9-0.9 S23.921,11.878,23.424,11.878z" style="fill:#fff"/><path id="id_108" d="M12.431,9.223h4.408c0.497,0,0.9-0.403,0.9-0.9s-0.403-0.9-0.9-0.9h-4.408c-0.497,0-0.9,0.403-0.9,0.9 S11.934,9.223,12.431,9.223z" style="fill:#fff"/><path id="id_109" d="M23.424,16.333H12.431c-0.497,0-0.9,0.403-0.9,0.9s0.403,0.9,0.9,0.9h10.994c0.497,0,0.9-0.403,0.9-0.9 S23.921,16.333,23.424,16.333z" style="fill:#fff"/><path id="id_110" d="M23.424,20.788H12.431c-0.497,0-0.9,0.403-0.9,0.9s0.403,0.9,0.9,0.9h10.994c0.497,0,0.9-0.403,0.9-0.9 S23.921,20.788,23.424,20.788z" style="fill:#fff"/></g></svg>