<svg xmlns="http://www.w3.org/2000/svg" width="88" height="40" fill="none" viewBox="0 0 88 40"><path fill="url(#paint0_linear)" fill-rule="evenodd" d="M40.0002 20.0003C40.0002 19.9882 40.0002 19.9762 40.0002 19.9641C40.0002 12.8044 34.4038 7.00029 27.5002 7.00029C20.5967 7.00029 15.0002 12.8044 15.0002 19.9641L15.0005 20.0003L40.0002 20.0003ZM7.00049 20C7.00049 19.9882 7.00049 19.9764 7.00049 19.9647C7.00049 8.93849 15.9548 0 27.0005 0C38.0462 0 47.0005 8.93849 47.0005 19.9647V20L7.00049 20Z" clip-rule="evenodd"/><path fill="url(#paint1_linear)" fill-rule="evenodd" d="M32.9997 20.0003C32.9997 19.9882 32.9997 19.9762 32.9997 19.9641C32.9997 12.8044 27.4033 7.00029 20.4997 7.00029C13.5961 7.00029 7.99971 12.8044 7.99971 19.9641L7.99999 20.0003L32.9997 20.0003ZM0 20C0 19.9882 0 19.9764 0 19.9647C0 8.93849 8.95431 0 20 0C31.0457 0 40 8.93849 40 19.9647V20L0 20Z" clip-rule="evenodd"/><path fill="url(#paint2_linear)" fill-rule="evenodd" d="M7.00029 19.9997C7.00029 20.0118 7.00029 20.0238 7.00029 20.0359C7.00029 27.1956 12.5967 32.9997 19.5003 32.9997C26.4039 32.9997 32.0003 27.1956 32.0003 20.0359L32 19.9997L7.00029 19.9997ZM40 20C40 20.0118 40 20.0236 40 20.0353C40 31.0615 31.0457 40 20 40C8.9543 40 0 31.0615 0 20.0353L0 20L40 20Z" clip-rule="evenodd"/><path fill="url(#paint3_linear)" fill-rule="evenodd" d="M14.0008 19.9997C14.0008 20.0118 14.0008 20.0238 14.0008 20.0359C14.0008 27.1956 19.5973 32.9997 26.5008 32.9997C33.4044 32.9997 39.0008 27.1956 39.0008 20.0359L39.0005 19.9997L14.0008 19.9997ZM47.0005 20C47.0005 20.0118 47.0005 20.0236 47.0005 20.0353C47.0005 31.0615 38.0462 40 27.0005 40C15.9548 40 7.00049 31.0615 7.00049 20.0353V20L47.0005 20Z" clip-rule="evenodd"/><path fill="#fff" fill-rule="evenodd" d="M55.5005 14.0002C57.4332 14.0002 59.0005 12.481 59.0005 10.5002C59.0005 8.51948 57.4332 7.00024 55.5005 7.00024C53.5678 7.00024 52.0005 8.51948 52.0005 10.5002C52.0005 12.481 53.5678 14.0002 55.5005 14.0002ZM56.0008 13.0006C54.8832 13.0006 54.0008 12.2025 54.0008 11.0006C54.0008 9.79866 54.8832 9.00058 56.0008 9.00058C57.1185 9.00058 58.0008 9.79866 58.0008 11.0006C58.0008 12.2025 57.1185 13.0006 56.0008 13.0006ZM65.0002 11.9503C65.0002 13.1903 64.0291 14.0003 62.8272 14.0003H60.0002V7.00029H62.6349C63.8079 7.00029 64.7599 7.79029 64.7599 9.00029C64.7599 9.58029 64.5387 10.0403 64.1733 10.3703C64.6733 10.7003 65.0002 11.2403 65.0002 11.9503ZM63.3034 10.0006H62.0005V9.00058H63.3034C63.7262 9.00058 64.0005 9.21026 64.0005 9.50058C64.0005 9.7909 63.7148 10.0006 63.3034 10.0006ZM62.0005 11.9994H63.3405C63.7405 11.9994 64.0005 11.7905 64.0005 11.4994C64.0005 11.2084 63.7405 10.9994 63.3405 10.9994H62.0005V11.9994ZM69.9997 14.0003V12.4603H67.4542V11.2203H69.7269V9.70029H67.4542V8.54029H69.9542V7.00029H65.9997V14.0003H69.9997ZM72.4542 10.2003V14.0003H70.9997V7.00029H72.0906L74.5451 10.8003V7.00029H75.9997V14.0003H74.9088L72.4542 10.2003ZM55.5005 24.0003C57.4332 24.0003 59.0005 22.4811 59.0005 20.5003C59.0005 18.5195 57.4332 17.0003 55.5005 17.0003C53.5678 17.0003 52.0005 18.5195 52.0005 20.5003C52.0005 22.4811 53.5678 24.0003 55.5005 24.0003ZM54.0008 19.9997C54.0008 21.2016 54.8832 21.9997 56.0008 21.9997C57.1185 21.9997 58.0008 21.2016 58.0008 19.9997C58.0008 18.7978 57.1185 17.9997 56.0008 17.9997C54.8832 17.9997 54.0008 18.7978 54.0008 19.9997ZM61.4817 24.0003V21.7003H62.1854L63.4077 24.0003H65.0002L63.6206 21.4303C64.3336 21.0403 64.8151 20.2603 64.8151 19.4003C64.8151 18.0703 63.8243 17.0003 62.5928 17.0003H60.0002V24.0003H61.4817ZM62.0005 19.9997H63.2005C63.6405 19.9997 64.0005 19.5664 64.0005 18.9997C64.0005 18.433 63.6405 17.9997 63.2005 17.9997H62.0005V19.9997ZM67.9997 24.0003V17.0003H65.9997V24.0003H67.9997ZM76.0008 20.6926C76.0008 22.7503 74.5582 24.0003 72.6606 24.0003C70.5306 24.0003 69.0008 22.4426 69.0008 20.5099C69.0008 18.558 70.5596 17.0003 72.5541 17.0003C73.8514 17.0003 74.9455 17.6349 75.5167 18.5388L74.2 19.2888C73.9192 18.8464 73.3093 18.5003 72.5444 18.5003C71.4019 18.5003 70.5499 19.3368 70.5499 20.5195C70.5499 21.6638 71.3632 22.5003 72.6799 22.5003C73.5804 22.5003 74.171 22.1061 74.413 21.4618H72.6025V20.1157H76.0008V20.6926ZM79.0005 24.0003V17.0003H77.0005V24.0003H79.0005ZM81.4548 20.2003V24.0003H80.0002V17.0003H81.0912L83.5457 20.8003V17.0003H85.0002V24.0003H83.9093L81.4548 20.2003Z" clip-rule="evenodd"/><path fill="#fff" fill-rule="evenodd" d="M59.7738 32.9995V26.4995H62.0005V25.9995H57.0005V26.4995H59.2273V32.9995H59.7738ZM54.6342 32.9996C56.0643 32.9996 57.0005 32.2628 57.0005 31.1381C57.0005 29.965 55.8894 29.5869 54.6137 29.1894C53.5849 28.8694 52.8544 28.6173 52.8544 27.8029C52.8544 27.0467 53.482 26.4941 54.4799 26.4941C55.5087 26.4941 56.0643 27.0564 56.3318 27.6672L56.7947 27.4248C56.4449 26.6395 55.663 25.9996 54.4799 25.9996C53.2556 25.9996 52.2988 26.7074 52.2988 27.8223C52.2988 28.9946 53.36 29.3193 54.5507 29.6837L54.5828 29.6935C55.6836 30.0232 56.4449 30.3334 56.4449 31.1478C56.4449 31.9234 55.8379 32.5051 54.6342 32.5051C53.4511 32.5051 52.7207 31.9525 52.4737 31.1381L52.0005 31.3999C52.3297 32.3597 53.2865 32.9996 54.6342 32.9996ZM68 30.5874C68 32.0445 66.9961 32.9995 65.4951 32.9995C63.9941 32.9995 63 32.0445 63 30.5874V25.9995H63.5165V30.5874C63.5165 31.7098 64.2085 32.4974 65.4951 32.4974C66.7914 32.4974 67.4834 31.7098 67.4834 30.5874V25.9995H68V30.5874ZM75.9916 29.762C75.9973 29.6754 76.0002 29.5878 76.0002 29.4995C76.0002 27.5695 74.6141 25.9995 72.6613 25.9995H70.0002V32.9995H70.9997V33.0004H73.1513C74.8419 33.0004 75.9997 31.6604 75.9997 30.0004C75.9997 29.9201 75.997 29.8407 75.9916 29.762ZM75.9916 29.762C75.8722 31.5699 74.5247 32.9995 72.6613 32.9995H70.9997V27.0004H73.1513C74.7602 27.0004 75.8865 28.214 75.9916 29.762ZM78.0005 25.9995H77.0005V32.9995H78.0005V25.9995ZM86.0008 29.4995C86.0008 31.4386 84.4593 32.9995 82.5008 32.9995C80.5424 32.9995 79.0008 31.4386 79.0008 29.4995C79.0008 27.5605 80.5424 25.9995 82.5008 25.9995C82.588 25.9995 82.6743 26.0026 82.7597 26.0087C81.1917 26.1288 80.0002 27.4151 80.0002 28.9995C80.0002 30.664 81.3152 31.9995 83.0002 31.9995C84.6046 31.9995 85.8734 30.7889 85.9913 29.2364C85.9976 29.3232 86.0008 29.411 86.0008 29.4995ZM85.9913 29.2364C85.9972 29.1583 86.0002 29.0793 86.0002 28.9995C86.0002 27.335 84.6853 25.9995 83.0002 25.9995C82.9192 25.9995 82.8389 26.0026 82.7597 26.0087C84.5058 26.1329 85.8653 27.5058 85.9913 29.2364ZM88.0005 32.5004C88.0005 32.7782 87.7783 33.0004 87.5005 33.0004C87.2116 33.0004 87.0005 32.7782 87.0005 32.5004C87.0005 32.2226 87.2116 32.0004 87.5005 32.0004C87.7783 32.0004 88.0005 32.2226 88.0005 32.5004Z" clip-rule="evenodd"/><defs><linearGradient id="paint0_linear" x1="30.807" x2="-19.861" y1="-12.609" y2="21.986" gradientUnits="userSpaceOnUse"><stop stop-color="#564BCE" stop-opacity=".01"/><stop offset="1" stop-color="#FC5847"/></linearGradient><linearGradient id="paint1_linear" x1="45.599" x2="23.901" y1="9.623" y2="-13.433" gradientUnits="userSpaceOnUse"><stop stop-color="#4BCECB"/><stop offset=".35" stop-color="#E7D11B"/><stop offset=".567" stop-color="#FFD101"/><stop offset=".732" stop-color="#FEAA18"/><stop offset="1" stop-color="#FB2267"/></linearGradient><linearGradient id="paint2_linear" x1="16.193" x2="66.861" y1="52.609" y2="18.014" gradientUnits="userSpaceOnUse"><stop stop-color="#564BCE" stop-opacity=".01"/><stop offset="1" stop-color="#FC5847"/></linearGradient><linearGradient id="paint3_linear" x1="1.402" x2="23.099" y1="30.377" y2="53.433" gradientUnits="userSpaceOnUse"><stop stop-color="#4BCECB"/><stop offset=".35" stop-color="#E7D11B"/><stop offset=".567" stop-color="#FFD101"/><stop offset=".732" stop-color="#FEAA18"/><stop offset="1" stop-color="#FB2267"/></linearGradient></defs></svg>