<svg xmlns="http://www.w3.org/2000/svg" width="55" height="55" fill="none" viewBox="0 0 55 55"><path fill="url(#paint0_linear)" fill-rule="evenodd" d="M40.0002 20.0003C40.0002 19.9882 40.0002 19.9762 40.0002 19.9641C40.0002 12.8044 34.4038 7.00029 27.5002 7.00029C20.5967 7.00029 15.0002 12.8044 15.0002 19.9641L15.0005 20.0003L40.0002 20.0003ZM7.00049 20C7.00049 19.9882 7.00049 19.9764 7.00049 19.9647C7.00049 8.93849 15.9548 0 27.0005 0C38.0462 0 47.0005 8.93849 47.0005 19.9647V20L7.00049 20Z" clip-rule="evenodd"/><path fill="url(#paint1_linear)" fill-rule="evenodd" d="M32.9997 20.0003C32.9997 19.9882 32.9997 19.9762 32.9997 19.9641C32.9997 12.8044 27.4033 7.00029 20.4997 7.00029C13.5961 7.00029 7.99971 12.8044 7.99971 19.9641L7.99999 20.0003L32.9997 20.0003ZM0 20C0 19.9882 0 19.9764 0 19.9647C0 8.93849 8.95431 0 20 0C31.0457 0 40 8.93849 40 19.9647V20L0 20Z" clip-rule="evenodd"/><defs>
        <linearGradient id="paint0_linear" x1="30.807" x2="-19.861" y1="-12.609" y2="21.986" gradientUnits="userSpaceOnUse"><stop stop-color="#564BCE" stop-opacity=".01"/><stop offset="1" stop-color="#FC5847"/></linearGradient>
        <linearGradient id="paint1_linear" x1="45.599" x2="23.901" y1="9.623" y2="-13.433" gradientUnits="userSpaceOnUse"><stop stop-color="#4BCECB"/><stop offset=".35" stop-color="#E7D11B"/><stop offset=".567" stop-color="#FFD101"/><stop offset=".732" stop-color="#FEAA18"/><stop offset="1" stop-color="#FB2267"/></linearGradient>
        <linearGradient id="paint2_linear" x1="16.193" x2="66.861" y1="52.609" y2="18.014" gradientUnits="userSpaceOnUse"><stop stop-color="#564BCE" stop-opacity=".01"/><stop offset="1" stop-color="#FC5847"/></linearGradient>
        <linearGradient id="paint3_linear" x1="1.402" x2="23.099" y1="30.377" y2="53.433" gradientUnits="userSpaceOnUse"><stop stop-color="#4BCECB"/><stop offset=".35" stop-color="#E7D11B"/><stop offset=".567" stop-color="#FFD101"/><stop offset=".732" stop-color="#FEAA18"/><stop offset="1" stop-color="#FB2267"/></linearGradient>
    </defs>
</svg>
