<svg class="restarone-logo" role="img" width="412" height="109" viewBox="0 0 412 109" fill="none" xmlns="http://www.w3.org/2000/svg">
    <title>Restarone Solutions Inc. Jaguar logo</title>
    <path d="M35 10.8V65.9L22.5 63.3V28.3L0 15.8V0.800003L35 10.8Z" fill="#F1FDFF"></path>
    <path d="M17.5 65.8V38.3L5 25.8V70.8L10 73.3L5 75.8V83.3L17.5 90.8V80.8L32.5 73.3L17.5 65.8Z" fill="#F1FDFF"></path>
    <path d="M40 10.8V65.9L52.5 63.3V28.3L75 15.8V0.800003L40 10.8Z" fill="#F1FDFF"></path>
    <path d="M57.5 65.8V38.3L70 25.8V70.8L65 73.3L70 75.8V83.3L57.5 90.8V80.8L42.5 73.3L57.5 65.8Z" fill="#F1FDFF"></path>
    <path d="M52.5 100.7V83.3L37.5 75.8L22.5 83.3V100.7L37.5 108.2L52.5 100.7Z" fill="#F1FDFF"></path>
    <path d="M105.1 30.4L100 35.5V71.3H110.2V40.7H120.5V30.4H105.1Z" fill="#F1FDFF"></path>
    <path d="M273.9 30.4L268.8 35.5V71.3H279V40.7H289.2V30.4H273.9Z" fill="#F1FDFF"></path>
    <path d="M125.6 35.5V66.2L130.7 71.3H161.4V66.2L156.3 61.1H135.8V56H156.3L161.4 50.9V35.6L156.3 30.5H130.7L125.6 35.5ZM151.1 45.8H135.8V40.7H151.1V45.8Z" fill="#F1FDFF"></path>
    <path d="M376.2 35.5V66.2L381.3 71.3H412V66.2L406.9 61.1H386.4V56H406.9L412 50.9V35.6L406.9 30.5H381.3L376.2 35.5ZM401.8 45.8H386.5V40.7H401.8V45.8Z" fill="#F1FDFF"></path>
    <path d="M263.7 35.5L258.6 30.4H227.9V35.5L233 40.6H253.5V45.7H233L227.9 50.8V66.1L233 71.2H263.7V35.5ZM238.1 56H253.4V61.1H238.1V56Z" fill="#F1FDFF"></path>
    <path d="M197.2 40.7V30.4H171.6L166.5 35.5V50.9L171.6 56H187V61.1H166.5V71.3H192.1L197.2 66.2V50.9L192.1 45.8H176.7V40.7H197.2Z" fill="#F1FDFF"></path>
    <path d="M222.8 40.7V30.4H212.5V20.2H202.3V66.2L207.4 71.3H222.8V61.1H212.5V40.7H222.8Z" fill="#F1FDFF"></path>
    <path d="M325 30.4H299.4L294.3 35.5V66.2L299.4 71.3H325L330.1 66.2V35.5L325 30.4ZM319.9 61.1H304.6V40.6H319.9V61.1Z" fill="#F1FDFF"></path>
    <path d="M366 30.4H340.4L335.3 35.5V71.3H345.5V40.7H360.9V71.3H371.1V35.5L366 30.4Z" fill="#F1FDFF"></path>
</svg>
