<svg width="29" height="30" viewBox="0 0 29 30" fill="none" xmlns="http://www.w3.org/2000/svg">
<g id="Logo/SB-silver">
<path id="Vector" d="M25.1361 14.6362C23.9067 13.9986 22.8814 13.9986 22.8814 13.9986C22.8814 13.9986 24.0847 13.3353 24.8276 12.9158C25.5704 12.4962 27.8347 10.7149 27.8703 7.78044C27.9059 4.81081 27.5878 3.58967 25.8885 2.12243C24.4193 0.852069 22.4328 0.57784 22.1741 0.549714C22.1741 0.549714 23.8687 3.7303 23.5886 7.85076C23.489 9.32503 22.5633 11.1673 21.6258 12.4259L19.4518 14.976C19.4518 14.976 22.4399 15.6487 23.5981 17.1698C24.3766 18.1894 24.678 20.3786 24.678 22.031C24.678 23.5826 24.614 26.9858 20.0523 27.4733C18.913 27.4733 16.7438 27.5038 15.0064 27.5319C16.5586 26.0577 17.0737 24.0818 17.171 21.7263C17.33 17.8144 14.7311 15.876 12.6093 14.5846C10.4875 13.2931 9.1014 12.7447 7.18132 11.7204C4.9432 10.5602 3.75175 8.71563 4.22881 5.5913C4.70586 2.46463 7.72958 2.01227 8.75488 2.06383C9.79681 2.11774 11.1947 2.30759 12.1844 3.77483C13.1552 5.21395 13.0507 7.16167 13.0507 7.16167C17.5768 7.07495 16.0745 3.12793 15.2984 2.33806C14.826 1.85757 13.758 0.805192 12.0254 0.385646C10.1006 -0.0807773 7.13622 -0.289379 4.96931 0.734877C0.35304 2.91699 0.248611 6.41164 0.742279 9.53598C1.28341 12.958 4.93371 15.037 7.16233 16.2417C8.92339 17.1933 10.7984 18.3699 11.9542 19.2957C14.031 20.9598 13.6417 24.8858 12.6781 26.0038C11.6837 27.1569 9.4764 28.1859 7.67261 27.9937C5.70031 27.7827 5.10222 27.1007 4.15286 25.9499C3.44321 25.0897 2.98514 22.8068 2.82613 21.4802C1.41158 21.4802 0.315067 22.4411 0.0682337 23.4888C-0.567838 28.0288 3.42897 29.2687 4.34748 29.5664C4.91709 29.7516 6.2818 29.9742 7.74856 29.9977H7.74381C7.74381 29.9977 17.0096 30 18.7445 30C20.4795 30 24.8988 29.8945 26.9138 27.7288C28.9288 25.5631 29 23.6787 29 21.5786C29 18.8058 27.4288 15.8526 25.1361 14.6291V14.6362Z" fill="#fff"/>
</g>
</svg>
