<svg width="55" height="60" viewBox="0 0 55 60" fill="none" xmlns="http://www.w3.org/2000/svg">
<path d="M47.6719 29.2723C45.3403 27.9973 43.3957 27.9973 43.3957 27.9973C43.3957 27.9973 45.6778 26.6707 47.0867 25.8316C48.4956 24.9925 52.7899 21.4299 52.8574 15.5609C52.9249 9.62161 52.3217 7.17934 49.0988 4.24485C46.3125 1.70414 42.545 1.15568 42.0543 1.09943C42.0543 1.09943 45.2682 7.4606 44.7371 15.7015C44.548 18.6501 42.7925 22.3346 41.0145 24.8519L36.8913 29.952C36.8913 29.952 42.5585 31.2974 44.7551 34.3397C46.2315 36.3788 46.8032 40.7571 46.8032 44.0619C46.8032 47.1652 46.6816 53.9717 38.0302 54.9467C35.8696 54.9467 31.7554 55.0076 28.4605 55.0639C31.4043 52.1153 32.3811 48.1636 32.5656 43.4525C32.8672 35.6288 27.9383 31.7521 23.9142 29.1692C19.89 26.5863 17.2613 25.4894 13.6197 23.4409C9.37504 21.1205 7.11539 17.4313 8.02015 11.1826C8.92491 4.92925 14.6595 4.02453 16.6041 4.12766C18.5802 4.23548 21.2314 4.61518 23.1084 7.54966C24.9495 10.4279 24.7514 14.3233 24.7514 14.3233C33.3353 14.1499 30.486 6.25587 29.0141 4.67612C28.1184 3.71515 26.0928 1.61038 22.8069 0.771292C19.1563 -0.161555 13.5342 -0.578757 9.42455 1.46975C0.669559 5.83397 0.471504 12.8233 1.40777 19.072C2.43406 25.916 9.35703 30.0739 13.5837 32.4834C16.9237 34.3866 20.4797 36.7398 22.6718 38.5914C26.6104 41.9197 25.8722 49.7715 24.0447 52.0075C22.1587 54.3139 17.9725 56.3717 14.5515 55.9874C10.8109 55.5655 9.67662 54.2014 7.87611 51.8997C6.53023 50.1793 5.66148 45.6135 5.35989 42.9603C2.67713 42.9603 0.597542 44.8823 0.129409 46.9776C-1.07693 56.0577 6.50322 58.5374 8.24521 59.1328C9.32552 59.5031 11.9138 59.9484 14.6955 59.9953H14.6865C14.6865 59.9953 32.2595 60 35.55 60C38.8404 60 47.2218 59.7891 51.0434 55.4576C54.865 51.1262 55 47.3574 55 43.1572C55 37.6117 52.0202 31.7052 47.6719 29.2583V29.2723Z" fill="#fff"/>
</svg>
