<svg xmlns="http://www.w3.org/2000/svg" width="32" height="32" viewBox="0 0 32 32"><g transform="translate(0 -1021.07)"><path style="isolation:auto;mix-blend-mode:normal" fill-rule="evenodd" d="m 0.99999902,1030.0693 0,7 0,7 11.99609398,0 7.996094,0 4,-7 -4,-7 -7.996094,0 -11.99609398,0 z m 19.49609398,5 c 0.832376,0 1.496068,0.6656 1.496094,1.498 10e-7,0.085 -0.01005,0.1669 -0.02344,0.2481 0.01322,0.081 0.02344,0.1633 0.02344,0.248 1.5e-5,0.8324 -0.663688,1.4961 -1.496094,1.4961 -0.832406,0 -1.496111,-0.6637 -1.496094,-1.4961 3e-6,-0.085 0.01022,-0.1673 0.02344,-0.248 -0.01339,-0.081 -0.02344,-0.1628 -0.02344,-0.2481 2.5e-5,-0.8324 0.663718,-1.498 1.496094,-1.498 z" color="#000" opacity=".15" overflow="visible"/><circle style="isolation:auto;mix-blend-mode:normal" cx="11.384" cy="1036.362" r="5.5" fill="#4bbfeb" color="#000" overflow="visible"/><path style="isolation:auto;mix-blend-mode:normal" fill="#25b39e" fill-rule="evenodd" d="m 1.8838825,1029.3622 0,7 0,7 11.9960935,0 7.996094,0 4,-7 -4,-7 -7.996094,0 -11.9960935,0 z m 19.4960935,5 c 0.832376,0 1.496068,0.6656 1.496094,1.498 1e-6,0.085 -0.01005,0.1669 -0.02344,0.2481 0.01322,0.081 0.02344,0.1633 0.02344,0.248 1.5e-5,0.8324 -0.663688,1.4961 -1.496094,1.4961 -0.832406,0 -1.496111,-0.6637 -1.496094,-1.4961 3e-6,-0.085 0.01022,-0.1673 0.02344,-0.248 -0.01339,-0.081 -0.02344,-0.1628 -0.02344,-0.2481 2.5e-5,-0.8324 0.663718,-1.498 1.496094,-1.498 z" color="#000" overflow="visible"/><g style="line-height:125%"><path d="M3.0360114 1034.1759c0 2.4025 2.5826198 2.7268 2.5826198 4.4565 0 .6007-.2642681.8169-.6846946.8169-.4204265 0-.6846945-.2162-.6846945-.8169l0-.6006-1.2492673 0 0 .5166c0 1.3453.6726824 2.1141 1.9699984 2.1141 1.297316 0 1.9699983-.7688 1.9699983-2.1141 0-2.4025-2.5826198-2.7268-2.5826198-4.4566 0-.6006.2402437-.8288.6606702-.8288.4204265 0 .6606702.2282.6606702.8288l0 .3484 1.2492672 0 0-.2643c0-1.3453-.6606701-2.1141-1.9459739-2.1141-1.2853038 0-1.945974.7688-1.945974 2.1141zM9.0066305 1033.3591l2.2823155 0 0-1.2012-3.6036558 0 0 8.4085 3.6036558 0 0-1.2012-2.2823155 0 0-2.4625 1.8138395 0 0-1.2012-1.8138395 0 0-2.3424zM13.309245 1034.0918c0-.6006.264268-.8288.684695-.8288.420426 0 .684694.2282.684694.8288l0 4.5406c0 .6007-.264268.8289-.684694.8289-.420427 0-.684695-.2282-.684695-.8289l0-4.5406zm-1.32134 4.4566c0 1.3453.708719 2.1141 2.006035 2.1141 1.297316 0 2.006034-.7688 2.006034-2.1141l0-4.3725c0-1.3453-.708718-2.1141-2.006034-2.1141-1.297316 0-2.006035.7688-2.006035 2.1141l0 4.3725z" font-family="Bebas Neue" font-size="12.012" font-weight="700" letter-spacing="0" opacity=".15" transform="translate(.884)" word-spacing="0" style="-inkscape-font-specification:'Bebas Neue Bold'"/></g><g style="line-height:125%"><path fill="#34485c" style="-inkscape-font-specification:'Bebas Neue Bold'" d="M3.0360114 1034.1759c0 2.4025 2.5826198 2.7268 2.5826198 4.4565 0 .6007-.2642681.8169-.6846946.8169-.4204265 0-.6846945-.2162-.6846945-.8169l0-.6006-1.2492673 0 0 .5166c0 1.3453.6726824 2.1141 1.9699984 2.1141 1.297316 0 1.9699983-.7688 1.9699983-2.1141 0-2.4025-2.5826198-2.7268-2.5826198-4.4566 0-.6006.2402437-.8288.6606702-.8288.4204265 0 .6606702.2282.6606702.8288l0 .3484 1.2492672 0 0-.2643c0-1.3453-.6606701-2.1141-1.9459739-2.1141-1.2853038 0-1.945974.7688-1.945974 2.1141zM9.0066305 1033.3591l2.2823155 0 0-1.2012-3.6036558 0 0 8.4085 3.6036558 0 0-1.2012-2.2823155 0 0-2.4625 1.8138395 0 0-1.2012-1.8138395 0 0-2.3424zM13.309245 1034.0918c0-.6006.264268-.8288.684695-.8288.420426 0 .684694.2282.684694.8288l0 4.5406c0 .6007-.264268.8289-.684694.8289-.420427 0-.684695-.2282-.684695-.8289l0-4.5406zm-1.32134 4.4566c0 1.3453.708719 2.1141 2.006035 2.1141 1.297316 0 2.006034-.7688 2.006034-2.1141l0-4.3725c0-1.3453-.708718-2.1141-2.006034-2.1141-1.297316 0-2.006035.7688-2.006035 2.1141l0 4.3725z" font-family="Bebas Neue" font-size="12.012" font-weight="700" letter-spacing="0" transform="translate(1.884)" word-spacing="0"/></g><path style="line-height:normal;text-indent:0;text-align:start;text-decoration-line:none;text-decoration-style:solid;text-decoration-color:#000;text-transform:none;block-progression:tb;isolation:auto;mix-blend-mode:normal" fill-rule="evenodd" d="m 24.324219,13.28125 0.611328,1.072266 c 0.294773,0.162981 0.555265,0.395418 0.748047,0.697265 0.207985,0.3271 0.314331,0.690888 0.326172,1.054688 0.01974,0.6064 -0.22566,1.210619 -0.710938,1.636719 -0.776407,0.6818 -1.92616,0.696003 -2.71875,0.0332 -0.491302,-0.4111 -0.750607,-1.003769 -0.75,-1.605469 l 0,-0.01367 0,-0.402344 c 0.0033,-0.4183 -0.178458,-0.745069 -0.470703,-0.980468 -0.316797,0.586999 -0.426968,1.257012 -0.322266,1.882812 0.11199,0.6692 0.455721,1.299919 1.007813,1.761719 1.104233,0.9234 2.724963,0.903525 3.80664,-0.04687 0.539502,-0.4739 0.864354,-1.11115 0.960938,-1.78125 l 1.287109,0 0.0059,0 c 0.554461,0 1.086457,0.221181 1.478515,0.613281 0.392108,0.392 0.611327,0.922163 0.611328,1.476563 -0.008,0.565299 0.843932,0.565299 0.835938,0 -5e-6,-0.7758 -0.308813,-1.51976 -0.857422,-2.06836 -0.548609,-0.5486 -1.292501,-0.857422 -2.068359,-0.857422 l -0.0059,0 -0.02539,0 -1.269531,0 c -0.05737,-0.4002 -0.187759,-0.793444 -0.416016,-1.152344 -0.473253,-0.744109 -1.239607,-1.204371 -2.064453,-1.320312 z" color="#000" font-family="sans-serif" font-weight="400" opacity=".15" overflow="visible" transform="translate(0 1020.362)"/><path style="line-height:normal;text-indent:0;text-align:start;text-decoration-line:none;text-decoration-style:solid;text-decoration-color:#000;text-transform:none;block-progression:tb;isolation:auto;mix-blend-mode:normal" fill-rule="evenodd" d="m 23,1036.3555 c -4.1e-5,-1.3728 -1.123288,-2.4981 -2.496094,-2.4981 -1.372806,0 -2.496053,1.1253 -2.496094,2.4981 -2.7e-5,1.3728 1.123241,2.4961 2.496094,2.4961 1.372854,0 2.496122,-1.1233 2.496094,-2.4961 z m -1,0 c 1.7e-5,0.8324 -0.663687,1.4961 -1.496094,1.4961 -0.832406,0 -1.49611,-0.6637 -1.496094,-1.4961 2.5e-5,-0.8324 0.663718,-1.4981 1.496094,-1.4981 0.832377,0 1.496069,0.6657 1.496094,1.4981 z" color="#000" font-family="sans-serif" font-weight="400" opacity=".15" overflow="visible"/><circle cx="1036.355" cy="-21.38" r="1.996" fill="none" stroke="#cad1d8" stroke-linecap="round" style="isolation:auto;mix-blend-mode:normal" stroke-linejoin="round" color="#000" overflow="visible" transform="rotate(90)"/><path style="line-height:normal;text-indent:0;text-align:start;text-decoration-line:none;text-decoration-style:solid;text-decoration-color:#000;text-transform:none;block-progression:tb;isolation:auto;mix-blend-mode:normal" fill="#34485c" fill-rule="evenodd" d="m 24.647554,1033.6142 c -0.105691,0.01 -0.210946,0.027 -0.316406,0.045 l 0.453125,0.7929 c 0.703157,-0.01 1.383841,0.3357 1.783203,0.961 0.207985,0.3271 0.314331,0.6909 0.326172,1.0547 0.01974,0.6064 -0.22566,1.2106 -0.710938,1.6367 -0.776407,0.6818 -1.92616,0.6958 -2.71875,0.033 -0.491302,-0.4111 -0.750607,-1.0038 -0.75,-1.6055 l 0,-0.014 0,-0.4024 c 0.0033,-0.4183 -0.178458,-0.7451 -0.470703,-0.9805 -0.316797,0.587 -0.426968,1.2571 -0.322266,1.8829 0.11199,0.6692 0.455721,1.2999 1.007813,1.7617 1.104233,0.9234 2.724962,0.9034 3.80664,-0.047 0.539502,-0.4739 0.864354,-1.1112 0.960938,-1.7813 l 1.287109,0 0.0059,0 c 0.554461,0 1.086457,0.2212 1.478515,0.6133 0.392108,0.392 0.611326,0.9222 0.611328,1.4766 -0.008,0.5653 0.843932,0.5653 0.835938,0 -5e-6,-0.7758 -0.308813,-1.5198 -0.857422,-2.0684 -0.548609,-0.5486 -1.292501,-0.8574 -2.068359,-0.8574 l -0.0059,0 -0.02539,0 -1.269531,0 c -0.05737,-0.4002 -0.187759,-0.7934 -0.416016,-1.1523 -0.579459,-0.9111 -1.596578,-1.4038 -2.625,-1.3496 z" color="#000" font-family="sans-serif" font-weight="400" overflow="visible"/></g></svg>