<svg xmlns="http://www.w3.org/2000/svg" xmlns:xlink="http://www.w3.org/1999/xlink" width="139" height="134" version="1.1" viewBox="0 8 139 134"><desc>Created with Sketch.</desc><g id="Group" fill="none" fill-rule="evenodd" stroke="none" stroke-width="1" transform="translate(0.000000, 8.000000)"><g id="lower" transform="translate(0.000000, 75.000000)"><path id="Rectangle-2-Copy-2" fill="#BCBCBC" d="M138.429688,50.0002313 C138.429688,54.4183816 134.267924,58 129.131975,58 L9.29771278,58 C4.1627278,58 0,54.426195 0,50.0002313 L0,15 L138.429688,15"/><path id="Rectangle-2-Copy" fill="#D8D8D8" d="M138.429688,46.0002313 C138.429688,50.4183816 134.267924,54 129.131975,54 L9.29771278,54 C4.1627278,54 0,50.426195 0,46.0002313 L0,11 L138.429688,11"/><rect id="Rectangle-3-Copy" width="138.43" height="5" x="0" y="0" fill="#BCBCBC"/><rect id="Rectangle-4-Copy-2" width="32" height="9" x="91" y="32" fill="#BDBDBD" rx="4.5"/><g id="dots-copy-2" transform="translate(13.000000, 32.000000)"><circle id="Oval-Copy-2" cx="28" cy="4" r="4" fill="#FFF"/><circle id="green" cx="4" cy="4" r="4" fill="#5DA3BC"/><circle id="green" cx="16" cy="4" r="4" fill="#5DBC85"/></g></g><g id="middle" transform="translate(0.000000, 43.000000)"><rect id="Rectangle" width="138.43" height="43" x="0" y="0" fill="#D8D8D8"/><rect id="Rectangle-3-Copy" width="138.43" height="5" x="0" y="38" fill="#BCBCBC"/><rect id="Rectangle-4-Copy" width="32" height="9" x="91" y="17" fill="#BDBDBD" rx="4.5"/><g id="dots-copy" transform="translate(13.000000, 17.000000)"><circle id="Oval" cx="4" cy="4" r="4" fill="#FFF"/><circle id="Oval-Copy-2" cx="28" cy="4" r="4" fill="#FFF"/><circle id="green" cx="16" cy="4" r="4" fill="#5DBC85"/></g></g><g id="upper"><path id="Rectangle-2" fill="#D8D8D8" d="M0,7.99976867 C0,3.58161843 3.57855634,0 7.9902731,0 L130.439414,0 C134.85232,0 138.429688,3.57380498 138.429688,7.99976867 L138.429688,43 L0,43 L0,7.99976867 Z"/><rect id="Rectangle-3" width="138.43" height="5" x="0" y="38" fill="#BCBCBC"/><rect id="Rectangle-4" width="32" height="9" x="91" y="17" fill="#BDBDBD" rx="4.5"/><g id="dots" transform="translate(13.000000, 18.000000)"><circle id="white" cx="16" cy="4" r="4" fill="#FFF"/><circle id="white" cx="28" cy="4" r="4" fill="#FFF"/><circle id="green" cx="4" cy="4" r="4" fill="#5DBC85"/></g></g></g></svg>