<?xml version="1.0" encoding="utf-8"?>
<!-- Generator: Adobe Illustrator 23.0.3, SVG Export Plug-In . SVG Version: 6.00 Build 0)  -->
<svg version="1.1" id="Capa_1" xmlns="http://www.w3.org/2000/svg" xmlns:xlink="http://www.w3.org/1999/xlink" x="0px" y="0px"
	 viewBox="0 0 1200 1200" enable-background="new 0 0 1200 1200" xml:space="preserve">
<g>
	<path fill="#FFD028" d="M859.681,600c-1.053,107.958-68.489,206.975-170.689,244.051c-101.448,36.803-217.999,5.846-287.573-76.679
		c-70.395-83.498-80.626-205.911-24.809-299.855c55.516-93.439,166.735-143.425,273.487-122.385
		C771.317,369.023,858.483,477.229,859.681,600z M430.1,204.471c-2.783-6.719,8.148-9.622,10.89-3.002
		c12.993,31.367,25.985,62.735,38.978,94.102c2.783,6.719-8.148,9.621-10.89,3.002C456.085,267.205,443.092,235.838,430.1,204.471z
		 M204.471,430.1c31.367,12.993,62.735,25.986,94.102,38.978c6.63,2.746,3.706,13.668-3.002,10.89
		c-31.367-12.993-62.735-25.986-94.102-38.978C194.838,438.243,197.763,427.321,204.471,430.1z M298.572,730.922
		c-31.367,12.993-62.735,25.985-94.102,38.978c-6.719,2.783-9.622-8.148-3.002-10.89c31.367-12.993,62.735-25.986,94.102-38.978
		C302.29,717.249,305.192,728.18,298.572,730.922z M479.968,904.43c-12.993,31.367-25.985,62.735-38.978,94.102
		c-2.746,6.63-13.668,3.706-10.89-3.002c12.993-31.367,25.985-62.735,38.978-94.102C471.824,894.797,482.746,897.722,479.968,904.43
		z M769.9,995.53c2.783,6.719-8.148,9.621-10.89,3.002c-12.993-31.367-25.985-62.734-38.978-94.102
		c-2.783-6.719,8.148-9.622,10.89-3.002C743.915,932.795,756.908,964.162,769.9,995.53z M995.529,769.9
		c-31.367-12.993-62.735-25.985-94.102-38.978c-6.63-2.746-3.706-13.668,3.002-10.89c31.367,12.993,62.735,25.985,94.102,38.978
		C1005.162,761.757,1002.237,772.679,995.529,769.9z M901.428,469.078c31.367-12.993,62.735-25.986,94.102-38.978
		c6.719-2.783,9.622,8.148,3.002,10.89c-31.367,12.993-62.735,25.985-94.102,38.978C897.71,482.751,894.808,471.82,901.428,469.078z
		 M720.032,295.57c12.993-31.367,25.985-62.735,38.978-94.102c2.746-6.63,13.668-3.706,10.89,3.002
		c-12.993,31.367-25.985,62.734-38.978,94.102C728.176,305.203,717.254,302.278,720.032,295.57z M827.859,364.156
		c51.067-51.067,102.133-102.133,153.2-153.2c5.148-5.148,13.131,2.84,7.986,7.986c-51.067,51.067-102.133,102.133-153.2,153.2
		C830.697,377.289,822.713,369.301,827.859,364.156z M1144.546,605.647c-72.219,0-144.439,0-216.658,0
		c-7.279,0-7.267-11.293,0-11.293c72.219,0,144.438,0,216.658,0C1151.824,594.353,1151.812,605.647,1144.546,605.647z
		 M989.045,981.059c5.148,5.148-2.84,13.131-7.986,7.985c-51.067-51.067-102.133-102.133-153.2-153.2
		c-5.148-5.148,2.84-13.131,7.986-7.986C886.911,878.926,937.978,929.992,989.045,981.059z M605.647,927.888
		c0,72.219,0,144.438,0,216.658c0,7.279-11.293,7.267-11.293,0c0-72.219,0-144.438,0-216.658
		C594.353,920.609,605.647,920.621,605.647,927.888z M372.141,835.844c-51.067,51.067-102.133,102.133-153.2,153.2
		c-5.148,5.148-13.131-2.84-7.986-7.985c51.067-51.067,102.133-102.133,153.2-153.2
		C369.303,822.711,377.287,830.699,372.141,835.844z M272.112,605.647c-72.219,0-144.438,0-216.658,0
		c-7.279,0-7.267-11.293,0-11.293c72.219,0,144.439,0,216.658,0C279.391,594.353,279.379,605.647,272.112,605.647z M210.955,218.941
		c-5.148-5.148,2.84-13.131,7.986-7.986c51.067,51.067,102.133,102.133,153.2,153.2c5.148,5.148-2.84,13.131-7.986,7.985
		C313.089,321.074,262.022,270.008,210.955,218.941z M594.353,272.112c0-72.219,0-144.439,0-216.658c0-7.279,11.293-7.267,11.293,0
		c0,72.219,0,144.439,0,216.658C605.647,279.391,594.353,279.379,594.353,272.112z"/>
	<path fill="#F4C01C" d="M654.735,853.775c-92.489,19.524-191.464-13.037-253.316-86.404
		c-70.395-83.498-80.626-205.911-24.809-299.855c55.516-93.439,166.735-143.425,273.487-122.385
		c1.484,0.292,2.939,0.656,4.413,0.973c-69.939,14.889-133.025,58.181-170.593,121.411
		c-55.816,93.944-45.585,216.357,24.809,299.855C546.743,812.465,598.795,842.117,654.735,853.775z"/>
</g>
</svg>
