<svg xmlns="http://www.w3.org/2000/svg" xmlns:xlink="http://www.w3.org/1999/xlink" id="Layer_1" x="0" y="0" enable-background="new 0 0 86.3 78.3" version="1.1" viewBox="0 0 86.3 78.3" xml:space="preserve"><g><path id="id_121" fill="#fff" d="M23.2,11.5c-1.1,1.4-2.1,3-3,4.6c2.8,1.7,6,3.1,9.4,4.1c0.1-0.6,0.2-1.2,0.3-1.7c1.2-5.6,2.8-10.2,4.9-13.7 c0.7-1.2,1.5-2.2,2.3-3.1c-1.8,0.5-3.4,1.2-5.1,2.1C28.7,5.6,25.7,8.2,23.2,11.5z"/><path id="id_122" fill="#fff" d="M31.3,22.5c-0.7,4.2-1.1,8.9-1.1,13.7h25c0-4.9-0.4-9.5-1.1-13.7c-3.6,0.9-7.4,1.3-11.4,1.3 C38.7,23.9,34.9,23.4,31.3,22.5z"/><path id="id_123" fill="#fff" d="M42.3,50.6c4.1,0,8.1,0.5,11.8,1.4c0.7-4.2,1.1-8.8,1.1-13.7h-25c0,4.8,0.4,9.4,1.1,13.6 C34.8,51,38.5,50.6,42.3,50.6z"/><path id="id_124" fill="#fff" d="M15.1,36.3h13.1c0.1-5.1,0.5-9.9,1.2-14.3c-2.8-0.8-5.5-1.9-7.9-3.1c-0.7-0.4-1.4-0.7-2-1.1 C16.8,23.1,15.2,29.4,15.1,36.3z"/><path id="id_125" fill="#fff" d="M19.3,56.6c3-1.8,6.4-3.2,10-4.2c-0.7-4.3-1.1-9.1-1.1-14.1H15C15.2,45,16.7,51.3,19.3,56.6z"/><path id="id_126" fill="#fff" d="M44.9,1.6C44.2,1.2,43.4,1,42.7,1c-0.7,0-1.5,0.2-2.2,0.6c-0.8,0.4-1.5,1.1-2.3,2c-1.5,1.7-2.9,4.4-4.1,7.7 c-1,2.8-1.8,6-2.5,9.5c3.5,0.9,7.2,1.3,11.1,1.3c3.9,0,7.6-0.5,11.1-1.3c-0.1-0.6-0.2-1.2-0.4-1.8c-1.1-5.4-2.7-9.9-4.6-13 C47.6,3.8,46.2,2.3,44.9,1.6z"/><path id="id_127" fill="#fff" d="M31.9,55.7c1.1,5.4,2.7,9.9,4.6,13c1.3,2.1,2.6,3.5,3.9,4.3c0.8,0.4,1.5,0.6,2.2,0.6c0.7,0,1.5-0.2,2.2-0.6 c0.8-0.4,1.5-1.1,2.3-2c1.5-1.7,2.9-4.4,4.1-7.7c1-2.8,1.8-6,2.5-9.5c-3.6-0.9-7.5-1.4-11.5-1.4c-3.8,0-7.4,0.4-10.8,1.2 C31.7,54.3,31.8,55,31.9,55.7z"/><path id="id_128" fill="#fff" d="M21.6,64.3c-1.2-1.6-2.3-3.2-3.3-5c-1.3,0.9-2.5,1.8-3.6,2.8c4.5,5.1,10.4,9,17.2,11 c-0.3-0.1-0.6-0.3-0.9-0.4C27.5,70.6,24.3,67.8,21.6,64.3z"/><path id="id_129" fill="#fff" d="M50.6,69.8c-0.7,1.2-1.5,2.2-2.3,3.1c1.7-0.5,3.4-1.2,5.1-2.1c3.3-1.8,6.3-4.4,8.8-7.7 c1.1-1.4,2.1-2.9,3-4.5c-2.8-1.7-5.9-3.1-9.3-4.2c-0.1,0.6-0.2,1.2-0.3,1.7C54.3,61.6,52.7,66.3,50.6,69.8z"/><path id="id_130" fill="#fff" d="M16.8,13.8c0.5,0.4,1.1,0.8,1.6,1.2C21.6,9.3,25.9,4.8,31,2c0.3-0.2,0.6-0.3,0.9-0.4 c-6.6,2-12.4,5.8-16.9,10.8C15.6,12.8,16.2,13.3,16.8,13.8z"/><path id="id_131" fill="#fff" d="M13.6,60.7c0.6-0.5,1.2-1,1.8-1.5c0.7-0.5,1.4-1,2.1-1.5C14.8,52,13.1,45.4,13,38.3H5.4 C5.6,46.8,8.6,54.5,13.6,60.7z"/><path id="id_132" fill="#fff" d="M54.4,2c3.6,2,6.8,4.8,9.4,8.3c1.1,1.5,2.2,3.1,3.1,4.8c1.3-0.9,2.4-1.8,3.5-2.7c-4.5-5-10.3-8.8-16.9-10.8 C53.8,1.7,54.1,1.8,54.4,2z"/><path id="id_133" fill="#fff" d="M29.6,54.2c-2.7,0.8-5.3,1.8-7.7,3c-0.6,0.3-1.2,0.6-1.8,1c3,5.6,7.1,10,11.9,12.6c1.6,0.9,3.3,1.6,5.1,2.1 c-0.2-0.2-0.3-0.3-0.5-0.5c-1.7-2-3.2-4.9-4.5-8.3C31.1,61.2,30.2,57.8,29.6,54.2z"/><path id="id_134" fill="#fff" d="M67.8,16.6c2.8,5.7,4.5,12.4,4.7,19.6H80c-0.2-8.6-3.3-16.4-8.4-22.6c-0.6,0.6-1.3,1.1-2,1.6 C69,15.7,68.4,16.2,67.8,16.6z"/><path id="id_135" fill="#fff" d="M71.5,61.1c5.1-6.2,8.3-14.1,8.5-22.7h-7.6c-0.1,7.3-1.8,14-4.7,19.7C69.1,59,70.3,60,71.5,61.1z"/><path id="id_136" fill="#fff" d="M13,36.3c0.1-7.2,1.8-13.9,4.7-19.6c-1.4-0.9-2.7-1.9-3.9-3c-5.1,6.2-8.2,14-8.4,22.6H13z"/><path id="id_137" fill="#fff" d="M63.6,55.6c0.8,0.4,1.6,0.9,2.3,1.3c2.6-5.4,4.2-11.8,4.4-18.6H57.3c0,5.1-0.5,9.9-1.2,14.3 C58.8,53.4,61.3,54.4,63.6,55.6z"/><path id="id_138" fill="#fff" d="M54.4,72.6c-0.3,0.2-0.6,0.3-0.9,0.4c6.5-2,12.3-5.7,16.8-10.6c-0.7-0.6-1.4-1.2-2.1-1.8 c-0.4-0.3-0.9-0.7-1.3-1C63.7,65.3,59.4,69.8,54.4,72.6z"/><path id="id_139" fill="#fff" d="M48.3,1.7c0.1,0.2,0.3,0.3,0.4,0.5c1.7,2,3.2,4.9,4.5,8.3c1,2.8,1.9,6.1,2.5,9.7c2.6-0.8,5.1-1.8,7.4-2.9 c0.7-0.4,1.4-0.7,2-1.1c-3-5.5-7.1-9.8-11.8-12.4C51.8,2.9,50.1,2.2,48.3,1.7z"/><path id="id_140" fill="#fff" d="M57.3,36.3h13.1c-0.1-6.8-1.7-13.2-4.3-18.5c-3,1.8-6.3,3.2-9.9,4.3C56.8,26.4,57.2,31.2,57.3,36.3z"/></g></svg>