<?xml version="1.0" standalone="no"?>
<!DOCTYPE svg PUBLIC "-//W3C//DTD SVG 20010904//EN"
 "http://www.w3.org/TR/2001/REC-SVG-20010904/DTD/svg10.dtd">
<svg version="1.0" xmlns="http://www.w3.org/2000/svg"
 width="651.000000pt" height="651.000000pt" viewBox="0 0 651.000000 651.000000"
 preserveAspectRatio="xMidYMid meet">
<metadata>
Created by potrace 1.14, written by Peter Selinger 2001-2017
</metadata>
<g transform="translate(0.000000,651.000000) scale(0.100000,-0.100000)"
fill="#000000" stroke="none">
<path d="M0 3255 l0 -3255 3255 0 3255 0 0 3255 0 3255 -3255 0 -3255 0 0
-3255z m2514 763 c9 -40 32 -143 52 -228 19 -85 70 -312 112 -503 43 -191 82
-348 87 -348 5 0 31 80 57 178 27 98 82 306 124 463 42 157 89 333 105 393 16
59 29 110 29 112 0 3 79 5 175 5 96 0 175 -2 175 -3 0 -2 47 -181 105 -398 58
-217 128 -479 156 -584 57 -216 58 -219 64 -213 3 2 34 141 69 309 36 167 72
338 81 379 9 41 22 104 30 140 8 36 28 130 45 209 17 79 33 147 36 152 3 5
102 9 221 9 l215 0 -7 -37 c-4 -21 -45 -193 -91 -383 -47 -190 -114 -464 -150
-610 -141 -576 -227 -928 -244 -995 l-17 -70 -175 -3 -174 -2 -164 602 c-143
529 -190 681 -190 616 0 -9 -26 -115 -59 -235 -32 -120 -89 -333 -126 -473
-37 -140 -78 -293 -91 -340 -12 -47 -27 -104 -34 -128 l-11 -42 -176 2 -175 3
-18 70 c-9 39 -34 140 -55 225 -20 85 -64 265 -97 400 -32 135 -79 326 -103
425 -24 99 -65 266 -90 370 -127 523 -145 597 -145 601 0 2 99 4 219 4 l219 0
16 -72z"/>
</g>
</svg>
